<?xml version="1.0" standalone="no"?>
<!DOCTYPE svg PUBLIC "-//W3C//DTD SVG 1.1//EN" "http://www.w3.org/Graphics/SVG/1.1/DTD/svg11.dtd" >
<svg xmlns="http://www.w3.org/2000/svg" xmlns:xlink="http://www.w3.org/1999/xlink" version="1.1">
<metadata>
Created by FontForge 20170731 at Wed Sep 20 01:00:58 2017
 By Aleksey,,,
Copyright 2016 Google Inc. All Rights Reserved.
</metadata>
<defs>
<font id="NotoSansThai-Black" horiz-adv-x="0" >
  <font-face 
    font-family="Noto Sans Thai Blk"
    font-weight="900"
    font-stretch="normal"
    units-per-em="1000"
    panose-1="2 11 10 2 4 5 4 2 2 4"
    ascent="800"
    descent="-200"
    bbox="-766 -441 941 1056"
    underline-thickness="50"
    underline-position="-175"
    unicode-range="U+000D-25CC"
  />
<missing-glyph horiz-adv-x="364" 
d="M33 0v666h265v-666h-265zM66 33h199v600h-199v-600z" />
    <glyph glyph-name="ru_lakkhangyao-thai" unicode="&#xe24;&#xe45;" horiz-adv-x="980" 
d="M388 -220v548q0 38 -17.5 60.5t-60.5 22.5q-37 0 -51.5 -15.5t-16.5 -34.5l70 -31l-12 -75q-36 -1 -50.5 -13.5t-14.5 -44.5v-43q0 -40 39 -40q18 0 33 6l15 -107q-19 -10 -47.5 -16.5t-62.5 -6.5q-80 0 -121.5 38t-41.5 106v37q0 55 25.5 87t74.5 48l1 4l-106 38v20
q0 55 30 99t86 70t136 26q74 0 123 -22.5t75 -64.5h4q25 41 73.5 64t119.5 23q81 0 132 -27.5t75 -76t24 -111.5v-568h-192v541q0 43 -17.5 66.5t-57.5 23.5t-57.5 -23.5t-17.5 -66.5v-541h-192z" />
    <glyph glyph-name="lu_lakkhangyao-thai" unicode="&#xe26;&#xe45;" horiz-adv-x="999" 
d="M407 -220v548q0 38 -17.5 60.5t-60.5 22.5q-37 0 -51.5 -15.5t-16.5 -34.5l70 -30l-12 -76q-24 -1 -32.5 -16t-8.5 -47v-74q0 -68 -42 -98t-108 -30q-35 0 -62.5 7t-45.5 18l17 98q11 -4 22 -4q33 0 33 33v59q0 41 18 68t58 37l1 4l-106 38v20q0 55 29.5 99t87.5 70
t145 26q67 0 117 -22.5t71 -64.5h4q25 41 74 64t119 23q80 0 131.5 -27.5t75.5 -76t24 -111.5v-568h-192v541q0 43 -17.5 66.5t-57.5 23.5t-57.5 -23.5t-17.5 -66.5v-541h-192z" />
    <glyph glyph-name=".notdef" horiz-adv-x="364" 
d="M33 0v666h265v-666h-265zM66 33h199v600h-199v-600z" />
    <glyph glyph-name=".null" 
 />
    <glyph glyph-name="nonmarkingreturn" horiz-adv-x="333" 
 />
    <glyph glyph-name="NULL" 
 />
    <glyph glyph-name="NULL" 
 />
    <glyph glyph-name="CR" unicode="&#xd;" horiz-adv-x="260" 
 />
    <glyph glyph-name="space" unicode=" " horiz-adv-x="260" 
 />
    <glyph glyph-name="hyphen" unicode="-" horiz-adv-x="318" 
d="M21 192v152h276v-152h-276z" />
    <glyph glyph-name="uni00A0" unicode="&#xa0;" horiz-adv-x="260" 
 />
    <glyph glyph-name="uni02BC" unicode="&#x2bc;" horiz-adv-x="250" 
d="M237 713l7 -11q-8 -36 -21.5 -86t-29 -100.5t-30.5 -87.5h-143q9 46 18 96.5t16 99.5t11 89h172z" />
    <glyph glyph-name="uni02D7" unicode="&#x2d7;" horiz-adv-x="218" 
d="M206 240h-194v72h194v-72z" />
    <glyph glyph-name="tildecomb" unicode="&#x303;" 
d="M-120 772q-6 -90 -34 -128.5t-72 -38.5q-30 0 -59.5 11.5t-57 23.5t-51.5 12q-5 0 -12.5 -8t-12.5 -40h-91q6 92 32 129.5t78 37.5q23 0 51.5 -11.5t57.5 -23.5t53 -12q5 0 12.5 8t12.5 40h93z" />
    <glyph glyph-name="uni0331" unicode="&#x331;" 
d="M-120 -84v-115h-346v115h346z" />
    <glyph glyph-name="uni0E01" unicode="&#xe01;" horiz-adv-x="650" 
d="M66 0v151q0 63 23 101t72 54l1 4l-106 38v20q0 55 30.5 99t91 70t150.5 26q130 0 197 -58t67 -168v-337h-192v328q0 38 -17.5 60.5t-60.5 22.5q-37 0 -51.5 -15.5t-16.5 -34.5l76 -33l-12 -77q-36 -4 -48 -27t-12 -55v-169h-192z" />
    <glyph glyph-name="uni0E02" unicode="&#xe02;" horiz-adv-x="620" 
d="M309 -15q-125 0 -186.5 53t-61.5 152v26q0 34 9.5 59t25.5 48q15 22 24.5 39t9.5 34q0 28 -28 28q-16 0 -39 -11l-27 115q34 17 71.5 23.5t65.5 6.5q73 0 103.5 -34t30.5 -94q0 -50 -24 -98q-12 -23 -22 -40.5t-10 -55.5v-27q0 -35 13.5 -55.5t45.5 -20.5q33 0 47.5 21.5
t14.5 58.5v335h190v-338q0 -114 -64.5 -169.5t-188.5 -55.5z" />
    <glyph glyph-name="uni0E03" unicode="&#xe03;" horiz-adv-x="632" 
d="M319 -15q-133 0 -195.5 56t-62.5 155v12q0 38 14.5 72t48.5 72q7 8 18.5 21t13.5 24l-3 1q-18 -6 -35 -6q-38 0 -62 28t-24 81v47h127q0 -26 6.5 -37.5t20.5 -11.5q7 0 15 2.5t16 10.5l16 36h100v-82q0 -34 -5 -54t-14 -35t-20 -33q-12 -18 -21 -32t-14.5 -32t-5.5 -46
v-23q0 -35 14.5 -56.5t51.5 -21.5t51 22t14 58v335h190v-338q0 -114 -65 -169.5t-190 -55.5z" />
    <glyph glyph-name="uni0E04" unicode="&#xe04;" horiz-adv-x="664" 
d="M58 0v308q0 124 66.5 189.5t209.5 65.5t207.5 -65.5t64.5 -189.5v-308h-190v311q0 43 -19 71.5t-66 28.5t-66 -28.5t-19 -71.5v-70l4 -1q17 39 40 51.5t61 12.5h18v-139h-18q-43 0 -65.5 -17t-31 -44.5t-8.5 -61.5v-42h-188z" />
    <glyph glyph-name="uni0E05" unicode="&#xe05;" horiz-adv-x="679" 
d="M58 0v424q0 70 42 104.5t109 34.5q49 0 83 -18t45 -53h5q11 35 45 53t83 18q68 0 109.5 -34.5t41.5 -104.5v-424h-190v361q0 27 -7.5 37.5t-21.5 10.5t-23 -10.5t-10 -32.5h-59q-4 43 -33 43q-13 0 -22 -10.5t-9 -37.5v-120l4 -1q17 39 41.5 51.5t71.5 12.5h18v-139h-18
q-49 0 -74 -17t-34 -44.5t-9 -61.5v-42h-188z" />
    <glyph glyph-name="uni0E06" unicode="&#xe06;" horiz-adv-x="664" 
d="M424 -10q-72 0 -117.5 28t-63.5 68h-11l-24 -86h-138v198q0 44 12.5 80t47.5 74q10 10 20 22t12 23l-3 1q-18 -6 -35 -6q-38 0 -62 28t-24 81v47h128q0 -26 6.5 -37.5t20.5 -11.5q7 0 15 2.5t16 10.5l16 36h107v-82q0 -41 -9.5 -66t-29.5 -56t-33 -49.5t-13 -49.5v-6
q0 -37 22.5 -59.5t61.5 -22.5q32 0 50 19.5t18 74.5v297h192v-348q0 -98 -45 -154t-137 -56z" />
    <glyph glyph-name="uni0E07" unicode="&#xe07;" horiz-adv-x="588" 
d="M153 0l-153 548h193l104 -396h3q10 0 18 7t16 19q14 23 20.5 54.5t6.5 62.5q0 55 -17.5 83.5t-49.5 28.5q-11 0 -20 -4l-32 145q24 7 46 8.5t35 1.5q56 0 94.5 -14.5t67.5 -41.5q72 -69 72 -201q0 -83 -26.5 -143t-63.5 -95q-31 -29 -79.5 -46t-137.5 -17h-97z" />
    <glyph glyph-name="uni0E08" unicode="&#xe08;" horiz-adv-x="574" 
d="M91 0v220h-45v107h215v-184h3q38 0 61.5 35.5t23.5 96.5q0 53 -18.5 83.5t-51 42.5t-75.5 12q-56 0 -97.5 -15.5t-70.5 -32.5v155q35 16 86.5 29.5t122.5 13.5q152 0 225 -67.5t73 -215.5q0 -136 -67.5 -208t-227.5 -72h-157z" />
    <glyph glyph-name="uni0E09" unicode="&#xe09;" horiz-adv-x="634" 
d="M234 -10q-82 0 -124 39.5t-42 130.5v153h182v-84q0 -41 15 -57t41 -16q35 0 56.5 24t21.5 74v71q0 47 -31.5 67.5t-85.5 20.5q-59 0 -105 -17t-76 -31v155q35 16 96.5 29.5t132.5 13.5q139 0 200 -61t61 -175v-327h-142l-24 81h-11q-19 -35 -59 -63t-106 -28z" />
    <glyph glyph-name="uni0E0A" unicode="&#xe0a;" horiz-adv-x="629" 
d="M322 -15q-128 0 -192.5 53.5t-64.5 152.5v24q0 34 7.5 59.5t23.5 48.5q15 22 24.5 39t9.5 34q0 28 -28 28q-16 0 -39 -11l-27 115q34 17 71.5 23.5t65.5 6.5q73 0 103.5 -34t30.5 -94q0 -50 -24 -98q-12 -23 -20 -40.5t-8 -55.5v-25q0 -35 14.5 -56.5t51.5 -21.5
q38 0 52.5 22.5t14.5 57.5v67q0 26 -11 42t-39 16h-6v94h7q37 0 49.5 33t12.5 83h190q0 -68 -17.5 -109t-55.5 -54v-4q32 -9 46 -34t14 -66v-71q0 -114 -65 -169.5t-191 -55.5z" />
    <glyph glyph-name="uni0E0B" unicode="&#xe0b;" horiz-adv-x="632" 
d="M322 -15q-132 0 -196 56t-64 155v12q0 38 14 72t48 72q7 8 18.5 21t13.5 24l-3 1q-18 -6 -35 -6q-38 0 -62 28t-24 81v47h128q0 -26 6.5 -37.5t20.5 -11.5q7 0 15 2.5t16 10.5l16 36h90v-82q0 -34 -2.5 -54t-9 -35t-17.5 -33t-20.5 -32t-15 -32t-5.5 -46v-23
q0 -35 15 -56.5t53 -21.5q40 0 54.5 22.5t14.5 57.5v67q0 26 -10 42t-33 16h-3v94h4q34 0 44.5 33t10.5 83h190q0 -135 -73 -163v-4q31 -9 45.5 -34t14.5 -66v-71q0 -225 -259 -225z" />
    <glyph glyph-name="uni0E0C" unicode="&#xe0c;" horiz-adv-x="943" 
d="M212 -10q-80 0 -121.5 38t-41.5 106v43q0 55 25.5 84t74.5 45l1 4l-106 38v20q0 55 30.5 99t90.5 70t149 26q130 0 193.5 -56t63.5 -154v-85q0 -50 19.5 -80.5t49.5 -30.5q21 0 37 17t16 57v317h192v-368q0 -90 -36 -140t-124 -50q-68 0 -107 28t-57 68h-11l-24 -86h-143
v335q0 41 -16.5 60.5t-54.5 19.5q-64 0 -70 -50l70 -33l-12 -77q-36 -1 -50.5 -13.5t-14.5 -44.5v-43q0 -40 39 -40q18 0 33 6l15 -107q-19 -10 -47.5 -16.5t-62.5 -6.5z" />
    <glyph glyph-name="uni0E0D" unicode="&#xe0d;" horiz-adv-x="957" 
d="M599 -211q-47 0 -94.5 8t-87.5 26v155q22 -14 60.5 -27.5t88.5 -13.5q68 0 102.5 29t34.5 78v32h-9q-18 -26 -51 -45t-91 -19q-79 0 -124 41t-45 127v161q0 39 -19 56.5t-53 17.5q-29 0 -47.5 -12.5t-21.5 -37.5l70 -33l-12 -77q-36 -1 -50.5 -13.5t-14.5 -44.5v-43
q0 -40 39 -40q18 0 33 6l15 -107q-19 -10 -47.5 -16.5t-62.5 -6.5q-80 0 -121.5 38t-41.5 106v43q0 55 25.5 84t74.5 45l1 4l-106 38v20q0 55 30.5 99t90.5 70t149 26q130 0 193.5 -56t63.5 -154v-102q0 -40 16.5 -57t38.5 -17q32 0 51.5 30.5t19.5 80.5v260h192v-470
q0 -148 -73.5 -218.5t-216.5 -70.5z" />
    <glyph glyph-name="uni0E0E" unicode="&#xe0e;" horiz-adv-x="657" 
d="M81 -220v17q0 99 45.5 139t123.5 40q46 0 87.5 -11.5t69.5 -32.5v396q0 38 -17.5 60.5t-60.5 22.5q-37 0 -51.5 -15.5t-16.5 -34.5l70 -30l-12 -76q-24 -1 -32.5 -16t-8.5 -47v-64q0 -68 -42 -98t-108 -30q-35 0 -62.5 7t-45.5 18l17 98q11 -4 22 -4q33 0 33 33v49
q0 41 18 68t58 37l1 4l-106 38v20q0 55 29.5 99t89.5 70t151 26q132 0 199 -58t67 -168v-557h-171q-20 29 -56 40.5t-62 11.5q-29 0 -41.5 -11t-12.5 -32v-9h-175z" />
    <glyph glyph-name="uni0E0F" unicode="&#xe0f;" horiz-adv-x="657" 
d="M48 -220v42q0 81 38.5 115.5t94.5 34.5q39 0 70 -16t53 -52l53 51l50 -34v407q0 38 -17.5 60.5t-60.5 22.5q-37 0 -51.5 -15.5t-16.5 -34.5l70 -30l-12 -76q-24 -1 -32.5 -16t-8.5 -47v-64q0 -68 -42 -98t-108 -30q-35 0 -62.5 7t-45.5 18l17 98q11 -4 22 -4q33 0 33 33
v49q0 41 18 68t58 37l1 4l-106 38v20q0 55 29.5 99t89.5 70t151 26q132 0 199 -58t67 -168v-557h-157l-67 49l-45 -49h-43q-8 17 -23 32t-37 15q-23 0 -28.5 -15t-5.5 -29v-3h-145z" />
    <glyph glyph-name="uni0E10" unicode="&#xe10;" horiz-adv-x="586" 
d="M96 0v220h-45v107h215v-184h3q38 0 61.5 35.5t23.5 96.5q0 79 -39.5 108.5t-103.5 29.5q-58 0 -99.5 -15.5t-70.5 -32.5v155q35 16 86.5 29.5t125.5 13.5q46 0 84.5 -7.5t64.5 -26.5q29 23 25 55h147q0 -37 -17 -75.5t-64 -67.5q25 -23 40.5 -65.5t15.5 -107.5
q0 -124 -69.5 -196t-226.5 -72h-157zM37 -220v36q0 81 34.5 115.5t89.5 34.5q41 0 68 -17t52 -51l48 54l61 -44v73h154v-201h-159l-54 48l-35 -48h-32q-9 17 -23.5 32t-36.5 15t-27.5 -15t-5.5 -29v-3h-134z" />
    <glyph glyph-name="uni0E11" unicode="&#xe11;" horiz-adv-x="664" 
d="M71 0v208q0 25 3 47t14 45.5t36 51.5q15 17 22.5 26t9.5 19l-3 1q-18 -6 -35 -6q-38 0 -62 28t-24 81v47h122q0 -26 6.5 -37.5t20.5 -11.5q7 0 15 2.5t16 10.5l16 36h90v-77h5q20 35 60.5 61t98.5 26q56 0 90 -32.5t34 -92.5v-433h-192v341q0 30 -8 45t-29 15
q-19 0 -36 -14.5t-41 -50.5q-19 -28 -28 -54t-9 -68v-214h-192z" />
    <glyph glyph-name="uni0E12" unicode="&#xe12;" horiz-adv-x="969" 
d="M276 -10q-90 0 -141.5 35t-72.5 100.5t-21 155.5q0 143 44.5 210t131.5 67q36 0 64 -14.5t48 -56.5h4q17 43 53.5 57t72.5 14q70 0 104 -39t34 -110v-141q0 -50 19.5 -80.5t49.5 -30.5q21 0 37 17t16 57v317h192v-368q0 -90 -36 -140t-124 -50q-68 0 -107 28t-57 68h-11
l-24 -86h-143v362q0 27 -6.5 35.5t-16.5 8.5q-11 0 -18.5 -8t-10.5 -31h-61q-3 24 -11 31.5t-16 7.5q-17 0 -26.5 -27t-9.5 -96q0 -77 15.5 -114t60.5 -37q7 0 14 1t13 3l18 -133q-17 -7 -34.5 -10t-43.5 -3z" />
    <glyph glyph-name="uni0E13" unicode="&#xe13;" horiz-adv-x="957" 
d="M212 -10q-80 0 -121.5 38t-41.5 106v43q0 55 25.5 84t74.5 45l1 4l-106 38v20q0 55 30.5 99t90.5 70t149 26q130 0 193.5 -56t63.5 -154v-122q0 -40 16.5 -57t38.5 -17q32 0 51.5 30.5t19.5 80.5v280h192v-548h-147l-24 86h-11q-18 -40 -56.5 -68t-103.5 -28
q-88 0 -126 45t-38 135v171q0 39 -19 56.5t-53 17.5q-29 0 -47.5 -12.5t-21.5 -37.5l70 -33l-12 -77q-36 -1 -50.5 -13.5t-14.5 -44.5v-43q0 -40 39 -40q18 0 33 6l15 -107q-19 -10 -47.5 -16.5t-62.5 -6.5z" />
    <glyph glyph-name="uni0E14" unicode="&#xe14;" horiz-adv-x="644" 
d="M265 -10q-83 0 -133.5 33.5t-73 95.5t-22.5 146q0 89 21.5 147t60 91t91 46.5t114.5 13.5q97 0 154.5 -26.5t83 -74t25.5 -111.5v-351h-192v337q0 35 -18 54.5t-55 19.5q-41 0 -65 -30t-24 -112q0 -60 16.5 -94t52.5 -34q7 0 16 1.5t16 2.5l18 -142q-17 -7 -41 -10
t-45 -3z" />
    <glyph glyph-name="uni0E15" unicode="&#xe15;" horiz-adv-x="664" 
d="M281 -10q-93 0 -145 35t-73.5 100t-21.5 154q0 144 44.5 211.5t135.5 67.5q36 0 64 -14.5t48 -56.5h4q17 43 53.5 57t73.5 14q73 0 107.5 -39t34.5 -110v-409h-192v362q0 26 -6 35t-16 9q-12 0 -19.5 -8t-10.5 -31h-62q-3 24 -10.5 31.5t-18.5 7.5q-16 0 -25 -28t-9 -100
t15.5 -109t59.5 -37q17 0 28 4l18 -133q-17 -7 -35 -10t-42 -3z" />
    <glyph glyph-name="uni0E16" unicode="&#xe16;" horiz-adv-x="638" 
d="M212 -10q-80 0 -121.5 38t-41.5 106v37q0 55 25.5 87t74.5 48l1 4l-106 38v20q0 55 30.5 99t91 70t150.5 26q130 0 197 -58t67 -168v-337h-192v328q0 38 -17.5 60.5t-60.5 22.5q-37 0 -51.5 -15.5t-16.5 -34.5l70 -31l-12 -75q-36 -1 -50.5 -13.5t-14.5 -44.5v-43
q0 -40 39 -40q18 0 33 6l15 -107q-19 -10 -47.5 -16.5t-62.5 -6.5z" />
    <glyph glyph-name="uni0E17" unicode="&#xe17;" horiz-adv-x="664" 
d="M68 0v548h142l24 -86h11q17 39 57.5 67.5t110.5 28.5q100 0 146.5 -54t46.5 -161v-343h-192v297q0 53 -17.5 73.5t-50.5 20.5q-41 0 -63.5 -38t-22.5 -128v-225h-192z" />
    <glyph glyph-name="uni0E18" unicode="&#xe18;" horiz-adv-x="566" 
d="M294 -15q-62 0 -125 11t-115 29v208h159v-111q17 -4 34 -6.5t34 -2.5q35 0 56 13.5t21 42.5q0 27 -18.5 40.5t-53 21t-80.5 18.5q-51 11 -89.5 27t-59.5 45t-21 78q0 63 34 99t92 50.5t129 14.5q69 0 120.5 -10t79.5 -22v-139q-21 7 -55 15t-74 14t-77 6
q-22 0 -39.5 -3.5t-17.5 -15.5t18.5 -17.5t51 -11t75.5 -18.5q89 -27 127 -69.5t38 -117.5q0 -52 -21 -95t-74 -68.5t-149 -25.5z" />
    <glyph glyph-name="uni0E19" unicode="&#xe19;" horiz-adv-x="664" 
d="M246 -10q-95 0 -141.5 57.5t-46.5 162.5v338h192v-297q0 -53 17 -73.5t49 -20.5q43 0 65.5 37.5t22.5 128.5v225h192v-548h-142l-24 86h-11q-17 -39 -57 -67.5t-116 -28.5z" />
    <glyph glyph-name="uni0E1A" unicode="&#xe1a;" horiz-adv-x="650" 
d="M325 -15q-139 0 -203 65.5t-64 189.5v308h192v-321q0 -43 17.5 -66.5t57.5 -23.5t57.5 23.5t17.5 66.5v321h192v-308q0 -124 -64 -189.5t-203 -65.5z" />
    <glyph glyph-name="uni0E1B" unicode="&#xe1b;" horiz-adv-x="652" 
d="M325 -15q-139 0 -203 65.5t-64 189.5v308h192v-321q0 -43 17.5 -66.5t57.5 -23.5t57.5 23.5t17.5 66.5v518h192v-505q0 -124 -64 -189.5t-203 -65.5z" />
    <glyph glyph-name="uni0E1C" unicode="&#xe1c;" horiz-adv-x="702" 
d="M64 0v408q0 86 40 118t110 32q40 0 65 -7.5t40 -15.5l-26 -119q-7 2 -14 3t-11 1q-16 0 -22 -9t-6 -26v-51q0 -20 -2 -56t-9 -91h5q21 50 35 77t24 46l28 53h56l28 -53q11 -22 20 -39.5t18 -37t21 -46.5h5q-7 55 -9 91t-2 56v214h176v-548h-187l-96 187h-4l-96 -187h-187
z" />
    <glyph glyph-name="uni0E1D" unicode="&#xe1d;" horiz-adv-x="702" 
d="M64 0v408q0 86 40 118t110 32q40 0 65 -7.5t40 -15.5l-26 -119q-7 2 -14 3t-11 1q-16 0 -22 -9t-6 -26v-51q0 -20 -2 -56t-9 -91h5q21 50 35 77t24 46l28 53h56l28 -53q11 -22 20 -39.5t18 -37t21 -46.5h5q-7 55 -9 91t-2 56v411h176v-745h-187l-96 187h-4l-96 -187h-187
z" />
    <glyph glyph-name="uni0E1E" unicode="&#xe1e;" horiz-adv-x="748" 
d="M113 0l-93 548h183l20 -162q2 -21 6 -59.5t7 -87.5h3q13 48 22 86.5t16 63.5l45 159h105l44 -159q7 -25 16 -63.5t22 -86.5h3q3 49 7 87.5t6 59.5l20 162h183l-93 -548h-188l-45 172q-13 50 -17.5 85.5t-8.5 63.5h-4q-4 -28 -10 -62t-20 -87l-47 -172h-182z" />
    <glyph glyph-name="uni0E1F" unicode="&#xe1f;" horiz-adv-x="742" 
d="M113 0l-93 548h183l20 -162q2 -21 6 -59.5t7 -87.5h3q13 48 22 86.5t16 63.5l45 159h105l44 -159q7 -25 16 -63.5t22 -86.5h3q3 49 7 87.5t6 59.5l38 359h183l-111 -745h-188l-45 172q-13 50 -17.5 85.5t-8.5 63.5h-4q-4 -28 -10 -62t-20 -87l-47 -172h-182z" />
    <glyph glyph-name="uni0E20" unicode="&#xe20;" horiz-adv-x="657" 
d="M128 -10q-35 0 -62.5 7t-45.5 18l17 98q11 -4 22 -4q33 0 33 33v59q0 41 18 68t58 37l1 4l-106 38v20q0 55 29.5 99t89.5 70t151 26q132 0 199 -58t67 -168v-337h-192v328q0 38 -17.5 60.5t-60.5 22.5q-37 0 -51.5 -15.5t-16.5 -34.5l70 -30l-12 -76q-24 -1 -32.5 -16
t-8.5 -47v-74q0 -68 -42 -98t-108 -30z" />
    <glyph glyph-name="uni0E21" unicode="&#xe21;" horiz-adv-x="664" 
d="M424 -10q-76 0 -118.5 28t-60.5 68h-11l-24 -86h-142v548h192v-225q0 -91 22.5 -128.5t65.5 -37.5q32 0 49 20.5t17 73.5v297h192v-348q0 -98 -45 -154t-137 -56z" />
    <glyph glyph-name="uni0E22" unicode="&#xe22;" horiz-adv-x="637" 
d="M306 -15q-96 0 -154.5 22t-85 61t-26.5 90q0 42 14 69t36 42t44 21v8q-38 14 -65 40.5t-27 78.5q0 39 18.5 71t60 51t109.5 19q36 0 67.5 -5t48.5 -13l-28 -124q-6 2 -17 4t-21 2q-25 0 -36.5 -11t-11.5 -28q0 -27 22 -35.5t48 -8.5h22v-112h-22q-68 0 -68 -44
q0 -18 15.5 -37.5t61.5 -19.5q43 0 59.5 18.5t16.5 39.5v364h192v-360q0 -101 -65.5 -152t-207.5 -51z" />
    <glyph glyph-name="uni0E23" unicode="&#xe23;" horiz-adv-x="535" 
d="M273 -15q-61 0 -127.5 14t-119.5 44l53 151q20 -13 49.5 -27t64.5 -23.5t70 -9.5q29 0 40.5 7t11.5 18q0 19 -29.5 29.5t-84.5 31.5q-45 17 -80 37.5t-55.5 52t-20.5 82.5q0 64 32 101.5t85.5 53.5t120.5 16q61 0 108 -10t73 -22v-147q-18 8 -47.5 16t-62 13.5t-61.5 5.5
q-22 0 -39 -5t-17 -19q0 -19 33.5 -28t82.5 -26q83 -29 118.5 -66.5t35.5 -104.5q0 -49 -21 -91t-71.5 -68t-141.5 -26z" />
    <glyph glyph-name="uni0E24" unicode="&#xe24;" horiz-adv-x="638" 
d="M212 -10q-80 0 -121.5 38t-41.5 106v37q0 55 25.5 87t74.5 48l1 4l-106 38v20q0 55 30.5 99t91 70t150.5 26q130 0 197 -58t67 -168v-557h-192v548q0 38 -17.5 60.5t-60.5 22.5q-37 0 -51.5 -15.5t-16.5 -34.5l70 -31l-12 -75q-36 -1 -50.5 -13.5t-14.5 -44.5v-43
q0 -40 39 -40q18 0 33 6l15 -107q-19 -10 -47.5 -16.5t-62.5 -6.5z" />
    <glyph glyph-name="uni0E25" unicode="&#xe25;" horiz-adv-x="614" 
d="M209 -10q-87 0 -133.5 41t-46.5 115q0 79 55.5 128t173.5 60l110 10v6q0 37 -23.5 53t-69.5 16q-53 0 -106 -16.5t-86 -36.5v153q29 13 85 28.5t132 15.5q50 0 96 -10t82 -35t57 -69t21 -112v-337h-188v212l-89 -10q-32 -4 -46 -18t-14 -32q0 -19 12.5 -30t32.5 -11
q10 0 20.5 2.5t18.5 4.5l13 -112q-19 -7 -48 -11.5t-59 -4.5z" />
    <glyph glyph-name="uni0E26" unicode="&#xe26;" horiz-adv-x="657" 
d="M128 -10q-35 0 -62.5 7t-45.5 18l17 98q11 -4 22 -4q33 0 33 33v59q0 41 18 68t58 37l1 4l-106 38v20q0 55 29.5 99t89.5 70t151 26q132 0 199 -58t67 -168v-557h-192v548q0 38 -17.5 60.5t-60.5 22.5q-37 0 -51.5 -15.5t-16.5 -34.5l70 -30l-12 -76q-24 -1 -32.5 -16
t-8.5 -47v-74q0 -68 -42 -98t-108 -30z" />
    <glyph glyph-name="uni0E27" unicode="&#xe27;" horiz-adv-x="526" 
d="M229 -15q-59 0 -110 14t-89 34l48 138q22 -13 56 -23.5t60 -10.5q44 0 72 34.5t28 105.5q0 65 -27.5 99.5t-85.5 34.5q-35 0 -71 -11t-59 -25v156q32 13 74.5 22.5t94.5 9.5q140 0 205 -74.5t65 -211.5q0 -149 -69.5 -220.5t-191.5 -71.5z" />
    <glyph glyph-name="uni0E28" unicode="&#xe28;" horiz-adv-x="676" 
d="M58 0v308q0 124 66.5 189.5t211.5 65.5q41 0 77 -8.5t63 -28.5q32 25 28 58h147q0 -36 -16.5 -74t-61.5 -67q19 -25 27 -60t8 -77v-306h-190v311q0 43 -19 71.5t-66 28.5t-66 -28.5t-19 -71.5v-70l4 -1q17 39 40 51.5t61 12.5h18v-139h-18q-43 0 -65.5 -17t-31 -44.5
t-8.5 -61.5v-42h-190z" />
    <glyph glyph-name="uni0E29" unicode="&#xe29;" horiz-adv-x="695" 
d="M335 -15q-147 0 -212 65.5t-65 189.5v308h190v-320q0 -45 20.5 -69t70.5 -24q40 0 60 18t22 59h-19q-52 0 -81.5 18t-41.5 45t-12 54q0 21 6 44t17 36l102 -23q-3 -6 -4.5 -15t-1.5 -15q0 -14 8 -23t20 -9h8v224h190v-224h52v-112h-53q-7 -111 -72 -169t-204 -58z" />
    <glyph glyph-name="uni0E2A" unicode="&#xe2a;" horiz-adv-x="620" 
d="M209 -10q-87 0 -133.5 41t-46.5 115q0 79 55.5 128t173.5 60l110 10v6q0 37 -23.5 53t-69.5 16q-53 0 -106 -16.5t-86 -36.5v153q29 13 85 28.5t130 15.5q39 0 73.5 -6t60.5 -24q24 22 20 51h147q0 -34 -14.5 -70t-54.5 -65q26 -39 26 -112v-337h-188v212l-89 -10
q-32 -4 -46 -18t-14 -32q0 -19 12.5 -30t32.5 -11q10 0 20.5 2.5t18.5 4.5l13 -112q-19 -7 -48 -11.5t-59 -4.5z" />
    <glyph glyph-name="uni0E2B" unicode="&#xe2b;" horiz-adv-x="643" 
d="M68 0v548h188v-183h5l134 183h207v-7l-137 -159q65 -14 97.5 -62.5t32.5 -109.5v-210h-192v173q0 35 -14 53t-38 24l-95 -110v-140h-188z" />
    <glyph glyph-name="uni0E2C" unicode="&#xe2c;" horiz-adv-x="735" 
d="M98 0l-78 548h188l21 -200q2 -21 4 -63t1 -90h3q13 37 24.5 70.5t24.5 67.5l34 92h98l33 -92q12 -34 24.5 -67.5t23.5 -70.5h3q2 49 5.5 89.5t5.5 61.5l7 62q6 51 -12 71.5t-64 20.5h-74v121h80q69 0 94 26t25 62v5h180v-5q0 -56 -25.5 -97.5t-83.5 -51.5v-4
q44 -15 58 -53t8 -78l-61 -425h-203l-35 117q-9 31 -18 66t-18 88h-4q-10 -53 -20 -88t-20 -66l-37 -117h-192z" />
    <glyph glyph-name="uni0E2D" unicode="&#xe2d;" horiz-adv-x="604" 
d="M295 -15q-133 0 -196 62t-63 176q0 18 1.5 50.5t4.5 53.5h263v-111h-82v-11q0 -36 16.5 -59t54.5 -23q40 0 60.5 31t20.5 104q0 74 -27.5 113.5t-105.5 39.5q-29 0 -62.5 -7t-62.5 -17t-47 -19v155q24 12 59.5 21t76 14t77.5 5q103 0 167 -35.5t93.5 -101.5t29.5 -155
q0 -139 -67 -212.5t-211 -73.5z" />
    <glyph glyph-name="uni0E2E" unicode="&#xe2e;" horiz-adv-x="618" 
d="M293 -15q-131 0 -194 62t-63 176q0 18 1.5 50.5t4.5 53.5h263v-111h-82v-11q0 -36 16.5 -59t54.5 -23q40 0 60.5 30.5t20.5 100.5q0 82 -31 119.5t-99 37.5q-48 0 -97.5 -14t-78.5 -29v155q23 12 59.5 21t76 14t73.5 5q41 0 77.5 -8.5t64.5 -28.5q33 24 29 58h147
q0 -37 -17 -75.5t-64 -67.5q58 -59 58 -180q0 -127 -67.5 -201.5t-212.5 -74.5z" />
    <glyph glyph-name="uni0E2F" unicode="&#xe2f;" horiz-adv-x="556" 
d="M308 0v237q-42 -34 -113 -34q-49 0 -92 19.5t-70 60t-27 103.5q0 80 46.5 126t129.5 46q15 0 35.5 -2t42.5 -10l-10 -114q-8 2 -13 2.5t-10 0.5q-18 0 -31 -10t-13 -31q0 -22 15.5 -35.5t46.5 -13.5q63 0 63 64v139h192v-548h-192z" />
    <glyph glyph-name="uni0E30" unicode="&#xe30;" horiz-adv-x="366" 
d="M169 309q-49 0 -78 15.5t-41.5 40.5t-12.5 54q0 37 23 83l133 -16q-4 -15 -4 -31q0 -14 8.5 -20.5t29.5 -6.5h94v-119h-152zM169 29q-49 0 -78 15.5t-41.5 40.5t-12.5 54q0 37 23 83l133 -16q-4 -15 -4 -31q0 -14 8.5 -20.5t29.5 -6.5h94v-119h-152z" />
    <glyph glyph-name="uni0E31" unicode="&#xe31;" 
d="M-229 616q-51 0 -80 15t-41 39t-12 49q0 37 23 83l133 -16q-2 -8 -3 -15t-1 -11q0 -14 8.5 -20.5t29.5 -6.5h194v-117h-251z" />
    <glyph glyph-name="uni0E32" unicode="&#xe32;" horiz-adv-x="461" 
d="M211 0v343q0 37 -18.5 53.5t-55.5 16.5q-31 0 -57 -8.5t-46 -18.5v147q22 10 65 20t99 10q58 0 104.5 -16.5t73.5 -56.5t27 -111v-379h-192z" />
    <glyph glyph-name="uni0E33" unicode="&#xe33;" horiz-adv-x="461" 
d="M211 0v343q0 37 -18.5 53.5t-55.5 16.5q-31 0 -57 -8.5t-46 -18.5v147q22 10 65 20t99 10q58 0 104.5 -16.5t73.5 -56.5t27 -111v-379h-192zM-186 596q-62 0 -99.5 27.5t-37.5 77.5t37.5 77.5t99.5 27.5q63 0 100.5 -27.5t37.5 -77.5t-37.5 -77.5t-100.5 -27.5zM-186 662
q44 0 44 39t-44 39q-43 0 -43 -39t43 -39z" />
    <glyph glyph-name="uni0E34" unicode="&#xe34;" 
d="M-553 616v79l120 50h365v-129h-485z" />
    <glyph glyph-name="uni0E35" unicode="&#xe35;" 
d="M-553 616v79l120 50h205v61h160v-190h-485z" />
    <glyph glyph-name="uni0E36" unicode="&#xe36;" 
d="M-553 616v79l120 50h178q6 31 33.5 52t72.5 21q53 0 82 -29t29 -72t-27 -72t-85 -29h-403zM-150 676q21 0 31.5 11t10.5 28q0 18 -11.5 29.5t-32.5 11.5q-20 0 -31.5 -11t-11.5 -28t11.5 -29t33.5 -12z" />
    <glyph glyph-name="uni0E37" unicode="&#xe37;" 
d="M-552 616v79l120 50h94v61h110v-61h50v61h110v-190h-484z" />
    <glyph glyph-name="uni0E38" unicode="&#xe38;" 
d="M-231 -261v78q0 25 -22 25q-5 0 -10 -1t-10 -3l-7 79q14 6 44 12.5t65 6.5q59 0 81 -22t22 -59v-116h-163z" />
    <glyph glyph-name="uni0E39" unicode="&#xe39;" 
d="M-240 -265q-92 0 -131.5 23t-39.5 56v17q0 17 -9.5 20.5t-25.5 -0.5l-7 73q13 7 41 9.5t47 2.5q49 0 71.5 -15.5t22.5 -45.5v-15q0 -16 5.5 -23t19.5 -7q26 0 26 30v73h152v-97q0 -50 -40 -75.5t-132 -25.5z" />
    <glyph glyph-name="uni0E3A" unicode="&#xe3a;" 
d="M-156 -223q-42 0 -65 22t-23 63t23 63t65 22t65 -22t23 -63t-23 -63t-65 -22z" />
    <glyph glyph-name="uni0E3F" unicode="&#xe3f;" horiz-adv-x="586" 
d="M60 36v642h170v82h79v-83q110 -4 158 -44.5t48 -113.5q0 -55 -33.5 -94.5t-88.5 -47.5v-5q58 -10 95.5 -45.5t37.5 -104.5q0 -88 -59.5 -137t-157.5 -49v-95h-79v95h-170zM185 432h45v115h-45v-115zM373 493q0 50 -64 54v-115q35 2 49.5 19.5t14.5 41.5zM185 171h45v134
h-45v-134zM384 239q0 25 -16 45.5t-59 20.5v-134h1q41 0 57.5 19t16.5 49z" />
    <glyph glyph-name="uni0E40" unicode="&#xe40;" horiz-adv-x="365" 
d="M233 -10q-85 0 -122 38t-37 106v414h192v-391q0 -33 30 -33q7 0 15.5 1.5t16.5 4.5l15 -117q-19 -10 -47 -16.5t-63 -6.5z" />
    <glyph glyph-name="uni0E41" unicode="&#xe41;" horiz-adv-x="700" 
d="M233 -10q-85 0 -122 38t-37 106v414h192v-391q0 -33 30 -33q7 0 15.5 1.5t16.5 4.5l15 -117q-19 -10 -47 -16.5t-63 -6.5zM568 -10q-85 0 -122 38t-37 106v414h192v-391q0 -33 30 -33q7 0 15.5 1.5t16.5 4.5l15 -117q-19 -10 -47 -16.5t-63 -6.5z" />
    <glyph glyph-name="uni0E42" unicode="&#xe42;" horiz-adv-x="370" 
d="M255 -10q-85 0 -122 38t-37 106v454q0 60 -18 86t-62 26v75l120 60h249v-135h-147l-1 -4q30 -16 40.5 -46t10.5 -79v-414q0 -33 30 -33q7 0 15.5 1.5t16.5 4.5l15 -117q-19 -10 -47 -16.5t-63 -6.5z" />
    <glyph glyph-name="uni0E43" unicode="&#xe43;" horiz-adv-x="365" 
d="M240 -10q-85 0 -122 38t-37 106v356q0 24 3 40.5t12.5 31t26.5 33.5q16 17 30 32.5t14 36.5q0 20 -16 32t-51 12q-45 0 -79 -23v135q13 8 56 20.5t104 12.5q87 0 137.5 -35.5t50.5 -105.5q0 -40 -14.5 -70t-31.5 -52t-28 -36.5t-16.5 -30t-5.5 -39.5v-327q0 -33 30 -33
q7 0 16 1.5t16 4.5l15 -117q-19 -10 -47.5 -16.5t-62.5 -6.5z" />
    <glyph glyph-name="uni0E44" unicode="&#xe44;" horiz-adv-x="367" 
d="M258 -10q-85 0 -122 38t-37 106v437q0 56 15.5 83t35.5 42l-1 4h-143l31 135h345v-135q-37 0 -64 -24t-27 -88v-431q0 -33 30 -33q7 0 16 1.5t16 4.5l15 -117q-19 -10 -47.5 -16.5t-62.5 -6.5z" />
    <glyph glyph-name="uni0E45" unicode="&#xe45;" horiz-adv-x="461" 
d="M211 -220v563q0 37 -18.5 53.5t-55.5 16.5q-31 0 -57 -8.5t-46 -18.5v147q22 10 65 20t99 10q58 0 104.5 -16.5t73.5 -56.5t27 -111v-599h-192z" />
    <glyph glyph-name="uni0E46" unicode="&#xe46;" horiz-adv-x="662" 
d="M412 -220v617q0 36 -31 36t-31 -36v-26h-68v26q0 36 -31 36q-17 0 -25 -13t-8 -44q0 -32 9.5 -44.5t29.5 -12.5q12 0 27 5l31 -113q-14 -13 -40.5 -23t-63.5 -10q-73 0 -119 47.5t-46 148.5q0 102 46 145.5t120 43.5q41 0 71.5 -12.5t45.5 -39.5h4q29 52 121 52
q41 0 75 -13t54.5 -48.5t20.5 -102.5v-619h-192z" />
    <glyph glyph-name="uni0E47" unicode="&#xe47;" 
d="M-204 611q-33 0 -55.5 12t-36.5 33l-51 -41q-68 0 -108.5 31.5t-40.5 92.5q0 43 18.5 70.5t48.5 41.5t64 14h267v-83h-233q-16 0 -27 -11t-11 -33q0 -16 6.5 -27t17.5 -11l39 39h22q2 -17 10.5 -29t24.5 -12q26 0 26 31v16h126v-24q0 -56 -29 -83t-78 -27z" />
    <glyph glyph-name="uni0E48" unicode="&#xe48;" 
d="M-250 616v219h172v-219h-172z" />
    <glyph glyph-name="uni0E49" unicode="&#xe49;" 
d="M-386 615v54q9 3 24.5 10t27.5 18.5t12 30.5q0 16 -8 23t-19 7q-14 0 -28 -7l-19 75q20 17 53 23t57 6q49 0 76.5 -20t27.5 -66q0 -10 -2.5 -20t-8.5 -19h135v-115h-328z" />
    <glyph glyph-name="uni0E4A" unicode="&#xe4a;" 
d="M-352 611q-57 0 -89 32.5t-32 87.5t33.5 89t89.5 35l67 -39l57 39q74 -2 102.5 -28.5t28.5 -64.5q0 -21 -8 -37h75v-109h-223v79q11 4 18.5 11t7.5 21q0 15 -8 22.5t-16 8.5l-31 -17h-4l-30 17q-8 -1 -15.5 -9.5t-7.5 -21.5q0 -12 7.5 -21t20.5 -9q4 0 7.5 0.5t9.5 1.5
l5 -76q-8 -6 -28 -9t-37 -3z" />
    <glyph glyph-name="uni0E4B" unicode="&#xe4b;" 
d="M-247 616v69h-65v102h65v68h152v-68h65v-102h-65v-69h-152z" />
    <glyph glyph-name="uni0E4C" unicode="&#xe4c;" 
d="M-270 600q-10 16 -16 40.5t-6 50.5q0 49 28 82t103 33h153v-124h-86q-19 0 -29 -6t-10 -22q0 -14 8 -30z" />
    <glyph glyph-name="uni0E4D" unicode="&#xe4d;" 
d="M-186 596q-62 0 -99.5 27.5t-37.5 77.5t37.5 77.5t99.5 27.5q63 0 100.5 -27.5t37.5 -77.5t-37.5 -77.5t-100.5 -27.5zM-186 662q44 0 44 39t-44 39q-43 0 -43 -39t43 -39z" />
    <glyph glyph-name="uni0E4E" unicode="&#xe4e;" 
d="M-285 601q-7 11 -12 24.5t-5 30.5q0 42 27.5 62t67.5 20q21 0 37 -6q-2 8 -2 17q0 39 29.5 56.5t67.5 17.5q14 0 33.5 -2.5t34.5 -9.5v-77q-7 3 -17 4.5t-18 1.5q-16 0 -28 -8t-12 -24q0 -5 1 -11t6 -12l-43 -30q-7 5 -15 7t-14 2q-15 0 -21.5 -8t-6.5 -18q0 -8 5 -18z
" />
    <glyph glyph-name="uni0E4F" unicode="&#xe4f;" horiz-adv-x="675" 
d="M337 -15q-99 0 -161 30t-91 84.5t-29 128.5q0 116 66 179t215 63q150 0 216 -63t66 -179q0 -74 -29 -128.5t-91 -84.5t-162 -30zM337 80q82 0 120.5 39t38.5 109q0 76 -38.5 111.5t-120.5 35.5t-120 -35.5t-38 -111.5q0 -70 38 -109t120 -39zM337 127q-55 0 -78.5 28.5
t-23.5 72.5q0 49 23.5 74.5t78.5 25.5t79 -25.5t24 -74.5q0 -44 -24 -72.5t-79 -28.5z" />
    <glyph glyph-name="uni0E50" unicode="&#xe50;" horiz-adv-x="563" 
d="M281 -15q-119 0 -182 66t-63 177q0 116 63 179t182 63q120 0 183 -63t63 -179q0 -111 -63 -177t-183 -66zM281 126q34 0 49 25t15 77q0 55 -15 78t-49 23q-33 0 -48 -23t-15 -78q0 -52 15 -77t48 -25z" />
    <glyph glyph-name="uni0E51" unicode="&#xe51;" horiz-adv-x="523" 
d="M235 -15q-23 0 -46 3t-46 11v116q7 -3 16 -4t20 -1q61 0 93.5 30t32.5 103q0 55 -17 74t-47 19q-21 0 -33 -7.5t-12 -25.5q0 -29 27 -29q10 0 20 5l25 -106q-14 -17 -44.5 -26.5t-60.5 -9.5q-58 0 -95 38.5t-37 118.5q0 82 48 126.5t160 44.5q134 0 191 -62t57 -170
q0 -73 -25.5 -129t-81 -87.5t-145.5 -31.5z" />
    <glyph glyph-name="uni0E52" unicode="&#xe52;" horiz-adv-x="663" 
d="M338 -15q-155 0 -223.5 61t-68.5 167v371h178v-354q0 -107 118 -107q57 0 84 26.5t27 84.5v102q0 10 -3.5 16.5t-10.5 6.5q-14 0 -17 -29h-28q-2 13 -5 21t-11 8q-9 0 -12.5 -11t-3.5 -28q0 -42 20 -42q10 0 23 6l25 -83q-11 -8 -28 -13.5t-38 -5.5q-32 0 -59.5 14.5
t-44.5 46t-17 83.5q0 61 24 100t80 39q26 0 45.5 -9.5t26.5 -29.5h3q18 39 84 39q49 0 80 -27t31 -86v-135q0 -71 -26 -123.5t-87.5 -80.5t-165.5 -28z" />
    <glyph glyph-name="uni0E53" unicode="&#xe53;" horiz-adv-x="568" 
d="M259 284q-1 22 -6 28t-10 6q-13 0 -19 -20t-6 -65q0 -59 11 -86t38 -27q10 0 17 4l21 -120q-17 -6 -44 -10t-56 -4q-93 0 -131 65t-38 177q0 124 36.5 178.5t111.5 54.5q27 0 52.5 -10.5t47.5 -45.5h3q7 22 26 34t42 17t44 5q65 0 94 -37t29 -104v-324h-180v286
q0 20 -4.5 26t-11.5 6q-8 0 -12 -6.5t-5 -27.5h-50z" />
    <glyph glyph-name="uni0E54" unicode="&#xe54;" horiz-adv-x="534" 
d="M253 0q-112 0 -164.5 56t-52.5 168q0 66 18.5 119.5t60 85t109.5 31.5h36q60 0 60 53v71h164v-121q0 -61 -35.5 -96t-102.5 -35h-22q-58 0 -82 -30.5t-24 -84.5q0 -47 15.5 -68t45.5 -21h9q-7 12 -11.5 32t-4.5 40q0 98 125 98q52 0 83 -17l-18 -91q-4 2 -9 2h-8
q-30 0 -30 -29q0 -34 48 -34h25v-129h-235z" />
    <glyph glyph-name="uni0E55" unicode="&#xe55;" horiz-adv-x="560" 
d="M263 0q-119 0 -173 56t-54 168q0 78 26.5 137.5t85.5 79.5q-17 11 -27.5 28.5t-10.5 41.5q0 41 31 65.5t85 24.5q56 0 85.5 -25.5t29.5 -65.5q0 -20 -6 -34.5t-16 -24.5q39 5 48 25t9 67v41h138v-121q0 -61 -40.5 -96t-107.5 -35h-32q-66 0 -91 -30.5t-25 -84.5
q0 -47 17 -68t54 -21h9q-7 12 -11.5 32t-4.5 40q0 98 125 98q52 0 83 -17l-18 -91q-4 2 -9 2h-8q-30 0 -30 -29q0 -34 48 -34h25v-129h-235zM227 468q15 0 23.5 10t8.5 23t-8.5 23t-23.5 10q-16 0 -23.5 -10t-7.5 -23t7.5 -23t23.5 -10z" />
    <glyph glyph-name="uni0E56" unicode="&#xe56;" horiz-adv-x="528" 
d="M264 -15q-68 0 -121.5 24.5t-83.5 82.5l123 85q32 -57 71 -57q57 0 57 108q0 54 -14 78t-39 24q-19 0 -32 -12.5t-12 -36.5h-138l-49 303h151l21 -155q32 36 104 36q99 0 144.5 -62.5t45.5 -169.5q0 -114 -53 -181t-175 -67z" />
    <glyph glyph-name="uni0E57" unicode="&#xe57;" horiz-adv-x="769" 
d="M259 284q-1 22 -6 28t-10 6q-13 0 -19 -20t-6 -65q0 -58 11 -85.5t37 -27.5q11 0 18 4l21 -120q-17 -6 -44 -10t-52 -4q-96 0 -134.5 63.5t-38.5 181.5q0 122 37 176t111 54q27 0 51.5 -10.5t43.5 -45.5h3q10 23 28.5 35.5t39.5 16.5t38 4q53 0 80.5 -28.5t27.5 -80.5
v-234q18 0 31 6t20 26t7 61v369h174v-346q0 -74 -22.5 -120.5t-58 -72t-77.5 -35.5t-81 -10h-157v286q0 20 -4.5 26t-11.5 6q-8 0 -12 -6.5t-5 -27.5h-40z" />
    <glyph glyph-name="uni0E58" unicode="&#xe58;" horiz-adv-x="565" 
d="M382 -15q-43 0 -72 17t-40 55l-52 -68q-90 -1 -136 55.5t-46 174.5q0 67 18.5 121.5t65.5 87t133 32.5h24q24 0 33.5 11t9.5 37v76h178v-121q0 -61 -35.5 -96t-102.5 -35h-67q-43 0 -66.5 -27t-23.5 -74q0 -42 15.5 -61.5t29.5 -22.5l24 40h34q0 -28 10 -40t28 -12
t27.5 10.5t9.5 27.5q0 14 -6.5 27t-11.5 19l101 73q36 -28 50.5 -64.5t14.5 -80.5q0 -79 -38.5 -120.5t-108.5 -41.5z" />
    <glyph glyph-name="uni0E59" unicode="&#xe59;" horiz-adv-x="576" 
d="M209 -10q-96 0 -134.5 63.5t-38.5 184.5q0 123 38 175t126 52q38 0 64.5 -9.5t43.5 -32.5q5 18 18.5 30t32.5 12h5q18 0 24 9t6 24v86h156v-118q0 -52 -22 -81.5t-58 -29.5h-14q-29 0 -35.5 -16.5t4.5 -53.5l87 -285h-159l-83 310q-4 15 -9 20.5t-12 5.5q-9 0 -16 -7.5
t-11 -29t-4 -64.5q0 -59 10.5 -87t37.5 -28q11 0 18 4l21 -120q-17 -6 -44 -10t-52 -4z" />
    <glyph glyph-name="uni0E5A" unicode="&#xe5a;" horiz-adv-x="866" 
d="M308 0v237q-42 -34 -113 -34q-49 0 -92 19.5t-70 60t-27 103.5q0 80 46.5 126t129.5 46q15 0 35.5 -2t42.5 -10l-10 -114q-8 2 -13 2.5t-10 0.5q-18 0 -31 -10t-13 -31q0 -22 15.5 -35.5t46.5 -13.5q63 0 63 64v139h192v-204q20 -9 41 -9q33 0 55 24t22 64v125h192v-548
h-192v243q-33 -37 -88 -37q-15 0 -30 3v-209h-192z" />
    <glyph glyph-name="uni0E5B" unicode="&#xe5b;" horiz-adv-x="931" 
d="M254 70q-107 0 -157.5 54.5t-50.5 148.5q0 82 40 128.5t129 46.5q78 0 114 -35t36 -93q0 -21 -4.5 -40t-12.5 -41l-106 27q5 17 5 30q0 12 -4.5 20.5t-15.5 8.5q-16 0 -20.5 -17t-4.5 -33q0 -41 21 -59t60 -18q67 0 91 46t17 133h114l36 -120l24 109h91l32 -96l22 76h81
l5 -20q8 -31 18 -51t45 -20q16 0 26 5v-119q-9 -5 -20 -8.5t-27 -3.5q-34 0 -61 22t-45 69l-14 -89h-74l-30 116l-22 -126h-97l-25 109q-10 -37 -33 -74t-66.5 -61.5t-116.5 -24.5z" />
    <glyph glyph-name="uni200B" unicode="&#x200b;" 
 />
    <glyph glyph-name="uni200C" unicode="&#x200c;" 
d="M-21 -133v761h42v-761h-42z" />
    <glyph glyph-name="uni200D" unicode="&#x200d;" 
d="M-21 -133v668l-62 -62l-26 27l82 82l-82 81l26 27l83 -83l83 83l26 -27l-82 -81l82 -82l-26 -27l-62 62v-668h-42z" />
    <glyph glyph-name="uni2010" unicode="&#x2010;" horiz-adv-x="318" 
d="M21 192v152h276v-152h-276z" />
    <glyph glyph-name="uni25CC" unicode="&#x25cc;" horiz-adv-x="594" 
d="M297 488q-11 0 -18.5 8t-7.5 18t7.5 18t18.5 8t18.5 -8t7.5 -18t-7.5 -18t-18.5 -8zM213 470q-11 0 -18.5 8t-7.5 18t7.5 18t18.5 8t18.5 -8t7.5 -18t-7.5 -18t-18.5 -8zM381 470q-11 0 -18.5 8t-7.5 18t7.5 18t18.5 8t18.5 -8t7.5 -18t-7.5 -18t-18.5 -8zM455 423
q-11 0 -18.5 7.5t-7.5 18.5t7.5 18.5t18.5 7.5t18.5 -7.5t7.5 -18.5t-7.5 -18.5t-18.5 -7.5zM139 423q-11 0 -18.5 7.5t-7.5 18.5t7.5 18.5t18.5 7.5t18.5 -7.5t7.5 -18.5t-7.5 -18.5t-18.5 -7.5zM92 349q-10 0 -18 7.5t-8 18.5t8 18.5t18 7.5t18 -7.5t8 -18.5t-8 -18.5
t-18 -7.5zM502 349q-10 0 -18 7.5t-8 18.5t8 18.5t18 7.5t18 -7.5t8 -18.5t-8 -18.5t-18 -7.5zM74 265q-10 0 -18 7.5t-8 18.5t8 18.5t18 7.5t18 -7.5t8 -18.5t-8 -18.5t-18 -7.5zM520 265q-10 0 -18 7.5t-8 18.5t8 18.5t18 7.5t18 -7.5t8 -18.5t-8 -18.5t-18 -7.5zM92 181
q-10 0 -18 7.5t-8 18.5t8 18.5t18 7.5t18 -7.5t8 -18.5t-8 -18.5t-18 -7.5zM502 181q-10 0 -18 7.5t-8 18.5t8 18.5t18 7.5t18 -7.5t8 -18.5t-8 -18.5t-18 -7.5zM139 107q-11 0 -18.5 7.5t-7.5 18.5t7.5 18.5t18.5 7.5t18.5 -7.5t7.5 -18.5t-7.5 -18.5t-18.5 -7.5zM455 107
q-11 0 -18.5 7.5t-7.5 18.5t7.5 18.5t18.5 7.5t18.5 -7.5t7.5 -18.5t-7.5 -18.5t-18.5 -7.5zM213 60q-11 0 -18.5 8t-7.5 18t7.5 18t18.5 8t18.5 -8t7.5 -18t-7.5 -18t-18.5 -8zM381 60q-11 0 -18.5 8t-7.5 18t7.5 18t18.5 8t18.5 -8t7.5 -18t-7.5 -18t-18.5 -8zM297 42
q-11 0 -18.5 8t-7.5 18t7.5 18t18.5 8t18.5 -8t7.5 -18t-7.5 -18t-18.5 -8z" />
    <glyph glyph-name="saraUu-thai.small" horiz-adv-x="582" 
d="M85 0v714h411v-714h-411zM136 51h309v612h-309v-612z" />
    <glyph glyph-name="uni0E24.aalt" horiz-adv-x="638" 
d="M212 -10q-80 0 -121.5 38t-41.5 106v37q0 55 25.5 87t74.5 48l1 4l-106 38v20q0 55 30.5 99t91 70t150.5 26q130 0 197 -58t67 -168v-511h-192v502q0 38 -17.5 60.5t-60.5 22.5q-37 0 -51.5 -15.5t-16.5 -34.5l70 -31l-12 -75q-36 -1 -50.5 -13.5t-14.5 -44.5v-43
q0 -40 39 -40q18 0 33 6l15 -107q-19 -10 -47.5 -16.5t-62.5 -6.5z" />
    <glyph glyph-name="uni0E26.aalt" horiz-adv-x="657" 
d="M128 -10q-35 0 -62.5 7t-45.5 18l17 98q11 -4 22 -4q33 0 33 33v59q0 41 18 68t58 37l1 4l-106 38v20q0 55 29.5 99t89.5 70t151 26q132 0 199 -58t67 -168v-511h-192v502q0 38 -17.5 60.5t-60.5 22.5q-37 0 -51.5 -15.5t-16.5 -34.5l70 -30l-12 -76q-24 -1 -32.5 -16
t-8.5 -47v-74q0 -68 -42 -98t-108 -30z" />
    <glyph glyph-name="doChada-thai.short" horiz-adv-x="657" 
d="M81 -200v17q0 84 45.5 121.5t123.5 37.5q46 0 87.5 -11.5t69.5 -32.5v396q0 38 -17.5 60.5t-60.5 22.5q-37 0 -51.5 -15.5t-16.5 -34.5l70 -30l-12 -76q-24 -1 -32.5 -16t-8.5 -47v-64q0 -68 -42 -98t-108 -30q-35 0 -62.5 7t-45.5 18l17 98q11 -4 22 -4q33 0 33 33v49
q0 41 18 68t58 37l1 4l-106 38v20q0 55 29.5 99t89.5 70t151 26q132 0 199 -58t67 -168v-537h-171q-20 29 -56 40.5t-62 11.5q-29 0 -41.5 -11t-12.5 -32v-9h-175z" />
    <glyph glyph-name="toPatak-thai.short" horiz-adv-x="657" 
d="M48 -200v42q0 54 17.5 82t48 38t67.5 10q39 0 70 -16t53 -52l53 51l50 -34v407q0 38 -17.5 60.5t-60.5 22.5q-37 0 -51.5 -15.5t-16.5 -34.5l70 -30l-12 -76q-24 -1 -32.5 -16t-8.5 -47v-64q0 -68 -42 -98t-108 -30q-35 0 -62.5 7t-45.5 18l17 98q11 -4 22 -4q33 0 33 33
v49q0 41 18 68t58 37l1 4l-106 38v20q0 55 29.5 99t89.5 70t151 26q132 0 199 -58t67 -168v-537h-157l-67 49l-45 -49h-43q-8 17 -23 32t-37 15q-23 0 -28.5 -15t-5.5 -29v-3h-145z" />
    <glyph glyph-name="yoYing-thai.less" horiz-adv-x="926" 
d="M620 -15q-126 0 -187 57.5t-61 182.5v116q0 39 -16.5 56.5t-50.5 17.5q-57 0 -63 -50l70 -33l-12 -77q-36 -1 -50.5 -13.5t-14.5 -44.5v-43q0 -40 39 -40q18 0 33 6l15 -107q-19 -10 -47.5 -16.5t-62.5 -6.5q-80 0 -121.5 38t-41.5 106v43q0 55 25.5 84t74.5 45l1 4
l-106 38v20q0 55 30 99t88 70t143 26q120 0 187.5 -53.5t67.5 -151.5v-152q0 -37 16.5 -53t41.5 -16t41.5 16t16.5 53v342h192v-323q0 -125 -61 -182.5t-187 -57.5z" />
    <glyph glyph-name="thoThan-thai.less" horiz-adv-x="586" 
d="M96 0v220h-45v107h215v-184h3q38 0 61.5 35.5t23.5 96.5q0 79 -39.5 108.5t-103.5 29.5q-58 0 -99.5 -15.5t-70.5 -32.5v155q35 16 86.5 29.5t125.5 13.5q46 0 84.5 -7.5t65.5 -26.5q29 23 25 55h147q0 -37 -17 -75.5t-64 -67.5q24 -23 39.5 -65.5t15.5 -107.5
q0 -124 -69.5 -196t-226.5 -72h-157z" />
    <glyph glyph-name="loChula-thai.short" horiz-adv-x="747" 
d="M80 0l-60 548h198l11 -224q1 -34 0.5 -83t-3.5 -101h4q10 35 21 70t24 70l35 95h109l40 -93q15 -35 23.5 -70t18.5 -72h4q1 34 4 65t7 63l11 74q5 38 -10 54.5t-49 16.5h-54v113h76q40 0 53 14t16 44h182q0 -51 -27 -85.5t-87 -42.5v-4q47 -15 61 -51t9 -75l-48 -326
h-212l-34 115q-8 28 -16.5 54t-16.5 67h-4q-8 -41 -17 -67.5t-18 -52.5l-38 -116h-213z" />
    <glyph glyph-name="macronbelowcomb.alt" 
d="M-120 -84v-115h-646v115h646z" />
    <glyph glyph-name="uni0E31.aalt" 
d="M-462 616q-52 0 -80.5 15t-40.5 39t-12 49q0 37 23 83l133 -16q-2 -8 -3 -15t-1 -11q0 -14 8.5 -20.5t29.5 -6.5h112v-117h-169z" />
    <glyph glyph-name="glyph99" 
d="M-228 855v201h160v-201h-160z" />
    <glyph glyph-name="glyph100" 
d="M-465 616v219h172v-219h-172z" />
    <glyph glyph-name="glyph102" 
d="M-271 855v45q8 3 22 8.5t25.5 15.5t11.5 26q0 13 -7.5 19t-16.5 6q-16 0 -27 -11l-18 68q19 14 49 19t53 5q45 0 70.5 -17t25.5 -54q0 -9 -1.5 -17.5t-6.5 -16.5h113v-96h-293z" />
    <glyph glyph-name="glyph103" 
d="M-561 615v54q9 3 24 10t27.5 18.5t12.5 30.5q0 16 -8.5 23t-18.5 7q-14 0 -28 -7l-19 75q20 17 53 23t57 6q49 0 76.5 -20t27.5 -66q0 -9 -2.5 -19.5t-9.5 -19.5h76v-115h-268z" />
    <glyph glyph-name="glyph105" 
d="M-252 850q-58 0 -82 30.5t-24 69.5q0 44 29.5 75t94.5 31l44 -37l42 37q55 0 86.5 -17.5t31.5 -57.5q0 -21 -9 -37h81v-89h-202v66q7 2 14.5 9.5t7.5 19.5q0 10 -6 18t-12 9l-32 -22h-5l-32 22q-6 0 -12 -8t-6 -21q0 -14 8.5 -20.5t19.5 -6.5q7 0 15 3l5 -62
q-7 -5 -24 -8.5t-33 -3.5z" />
    <glyph glyph-name="glyph106" 
d="M-542 611q-50 0 -77.5 32t-27.5 87q0 58 29.5 91t75.5 34l57 -39l50 39q63 -2 87.5 -27t24.5 -65q0 -26 -7 -45h37v-102h-164v79q10 4 16 11t6 21q0 15 -6.5 22.5t-14.5 8.5l-26 -17h-4l-25 17q-7 -1 -13 -9.5t-6 -21.5q0 -12 6 -21t17 -9q4 0 7 0.5t8 1.5l4 -76
q-7 -6 -23.5 -9t-30.5 -3z" />
    <glyph glyph-name="glyph108" 
d="M-224 855v51h-74v99h74v51h142v-51h74v-99h-74v-51h-142z" />
    <glyph glyph-name="glyph110" 
d="M-235 836q-14 22 -20.5 47t-6.5 48q0 29 15.5 55t55 42t111.5 16h102v-102h-89q-53 0 -53 -40q0 -7 2 -17.5t7 -18.5z" />
    <glyph glyph-name="glyph111" 
d="M-525 600q-10 16 -16 40.5t-6 50.5q0 49 33 82t108 33h113v-124h-56q-19 0 -29 -6t-10 -22q0 -14 8 -30z" />
    <glyph glyph-name="uni0E47.aalt" 
d="M-385 611q-28 0 -47.5 12t-31.5 33l-43 -41q-59 0 -93.5 31.5t-34.5 92.5q0 64 34.5 95t77.5 31h229v-83h-200q-14 0 -23 -11t-9 -33q0 -16 5.5 -27t14.5 -11l34 39h19q1 -17 9 -29t21 -12q22 0 22 31v16h108v-24q0 -56 -25 -83t-67 -27z" />
    <glyph glyph-name="uni0E34.aalt" 
d="M-686 616v79l90 50h303v-129h-393z" />
    <glyph glyph-name="uni0E35.aalt" 
d="M-686 616v69l90 50h153v71h150v-190h-393z" />
    <glyph glyph-name="uni0E36.aalt" 
d="M-686 616v69l90 50h113q2 35 29 59t72 24q49 0 76.5 -29t27.5 -72t-25.5 -72t-79.5 -29h-303zM-383 676q19 0 29 11t10 28q0 18 -11 29.5t-30 11.5t-29.5 -11t-10.5 -28t10.5 -29t31.5 -12z" />
    <glyph glyph-name="uni0E37.aalt" 
d="M-686 616v69l90 50h82v71h88v-71h45v71h88v-190h-393z" />
    <glyph glyph-name="nikhahit_maiEk-thai" 
d="M-186 596q-62 0 -99.5 27.5t-37.5 77.5t37.5 77.5t99.5 27.5q63 0 100.5 -27.5t37.5 -77.5t-37.5 -77.5t-100.5 -27.5zM-186 662q44 0 44 39t-44 39q-43 0 -43 -39t43 -39zM-253 855v201h160v-201h-160z" />
    <glyph glyph-name="nikhahit_maiTho-thai" 
d="M-186 596q-62 0 -99.5 27.5t-37.5 77.5t37.5 77.5t99.5 27.5q63 0 100.5 -27.5t37.5 -77.5t-37.5 -77.5t-100.5 -27.5zM-186 662q44 0 44 39t-44 39q-43 0 -43 -39t43 -39zM-296 855v45q8 3 22 8.5t25.5 15.5t11.5 26q0 13 -7.5 19t-16.5 6q-16 0 -27 -11l-18 68
q19 14 49 19t53 5q45 0 70.5 -17t25.5 -54q0 -9 -1.5 -17.5t-6.5 -16.5h113v-96h-293z" />
    <glyph glyph-name="nikhahit_maiTri-thai" 
d="M-186 596q-62 0 -99.5 27.5t-37.5 77.5t37.5 77.5t99.5 27.5q63 0 100.5 -27.5t37.5 -77.5t-37.5 -77.5t-100.5 -27.5zM-186 662q44 0 44 39t-44 39q-43 0 -43 -39t43 -39zM-277 850q-58 0 -82 30.5t-24 69.5q0 44 29.5 75t94.5 31l44 -37l42 37q55 0 86.5 -17.5
t31.5 -57.5q0 -21 -9 -37h81v-89h-202v66q7 2 14.5 9.5t7.5 19.5q0 10 -6 18t-12 9l-32 -22h-5l-32 22q-6 0 -12 -8t-6 -21q0 -14 8.5 -20.5t19.5 -6.5q7 0 15 3l5 -62q-7 -5 -24 -8.5t-33 -3.5z" />
    <glyph glyph-name="nikhahit_maiChattawa-thai" 
d="M-186 596q-62 0 -99.5 27.5t-37.5 77.5t37.5 77.5t99.5 27.5q63 0 100.5 -27.5t37.5 -77.5t-37.5 -77.5t-100.5 -27.5zM-186 662q44 0 44 39t-44 39q-43 0 -43 -39t43 -39zM-249 855v51h-74v99h74v51h142v-51h74v-99h-74v-51h-142z" />
    <glyph glyph-name="uni0E3A.aalt" 
d="M-146 -407q-42 0 -65 22t-23 63t23 63t65 22t65 -22t23 -63t-23 -63t-65 -22z" />
    <glyph glyph-name="uni0E38.aalt" 
d="M-221 -437v78q0 25 -22 25q-5 0 -10 -1t-10 -3l-7 79q14 6 44 12.5t65 6.5q59 0 81 -22t22 -59v-116h-163z" />
    <glyph glyph-name="uni0E39.aalt" 
d="M-229 -441q-92 0 -131.5 23t-39.5 56v17q0 17 -9.5 20.5t-25.5 -0.5l-7 73q13 7 41 9.5t47 2.5q49 0 71.5 -15.5t22.5 -45.5v-15q0 -16 5.5 -23t19.5 -7q26 0 26 30v73h152v-97q0 -50 -40 -75.5t-132 -25.5z" />
    <glyph glyph-name="maiChattawa-thai.narrow" 
d="M-510 616v69h-65v102h65v68h152v-68h65v-102h-65v-69h-152z" />
    <glyph glyph-name="nikhahit-thai.narrow" 
d="M-428 596q-62 0 -99.5 27.5t-37.5 77.5t37.5 77.5t99.5 27.5q63 0 100.5 -27.5t37.5 -77.5t-37.5 -77.5t-100.5 -27.5zM-428 662q44 0 44 39t-44 39q-43 0 -43 -39t43 -39z" />
    <glyph glyph-name="nikhahit_maiEk-thai.narrow" 
d="M-346 596q-62 0 -99.5 27.5t-37.5 77.5t37.5 77.5t99.5 27.5q63 0 100.5 -27.5t37.5 -77.5t-37.5 -77.5t-100.5 -27.5zM-346 662q44 0 44 39t-44 39q-43 0 -43 -39t43 -39zM-413 855v201h160v-201h-160z" />
    <glyph glyph-name="nikhahit_maiTho-thai.narrow" 
d="M-345 596q-62 0 -99.5 27.5t-37.5 77.5t37.5 77.5t99.5 27.5q63 0 100.5 -27.5t37.5 -77.5t-37.5 -77.5t-100.5 -27.5zM-345 662q44 0 44 39t-44 39q-43 0 -43 -39t43 -39zM-455 855v45q8 3 22 8.5t25.5 15.5t11.5 26q0 13 -7.5 19t-16.5 6q-16 0 -27 -11l-18 68
q19 14 49 19t53 5q45 0 70.5 -17t25.5 -54q0 -9 -1.5 -17.5t-6.5 -16.5h113v-96h-293z" />
    <glyph glyph-name="nikhahit_maiTri-thai.narrow" 
d="M-346 596q-62 0 -99.5 27.5t-37.5 77.5t37.5 77.5t99.5 27.5q63 0 100.5 -27.5t37.5 -77.5t-37.5 -77.5t-100.5 -27.5zM-346 662q44 0 44 39t-44 39q-43 0 -43 -39t43 -39zM-437 850q-58 0 -82 30.5t-24 69.5q0 44 29.5 75t94.5 31l44 -37l42 37q55 0 86.5 -17.5
t31.5 -57.5q0 -21 -9 -37h81v-89h-202v66q7 2 14.5 9.5t7.5 19.5q0 10 -6 18t-12 9l-32 -22h-5l-32 22q-6 0 -12 -8t-6 -21q0 -14 8.5 -20.5t19.5 -6.5q7 0 15 3l5 -62q-7 -5 -24 -8.5t-33 -3.5z" />
    <glyph glyph-name="nikhahit_maiChattawa-thai.narrow" 
d="M-345 596q-62 0 -99.5 27.5t-37.5 77.5t37.5 77.5t99.5 27.5q63 0 100.5 -27.5t37.5 -77.5t-37.5 -77.5t-100.5 -27.5zM-345 662q44 0 44 39t-44 39q-43 0 -43 -39t43 -39zM-408 855v51h-74v99h74v51h142v-51h74v-99h-74v-51h-142z" />
    </font>
</defs>
</svg>
